<?xml version="1.0" encoding="UTF-8"?>
<svg width="819.06" height="293.84" inkscape:version="1.0.2 (e86c870879, 2021-01-15)" sodipodi:docname="Aqours_logo.svg" version="1.1" viewBox="0 0 819.06 293.84" xmlns="http://www.w3.org/2000/svg" xmlns:cc="http://creativecommons.org/ns#" xmlns:dc="http://purl.org/dc/elements/1.1/" xmlns:inkscape="http://www.inkscape.org/namespaces/inkscape" xmlns:rdf="http://www.w3.org/1999/02/22-rdf-syntax-ns#" xmlns:sodipodi="http://sodipodi.sourceforge.net/DTD/sodipodi-0.dtd">
 <metadata>
  <rdf:RDF>
   <cc:Work rdf:about="">
    <dc:format>image/svg+xml</dc:format>
    <dc:type rdf:resource="http://purl.org/dc/dcmitype/StillImage"/>
    <dc:title/>
   </cc:Work>
  </rdf:RDF>
 </metadata>
 <sodipodi:namedview bordercolor="#666666" borderopacity="1" fit-margin-bottom="0" fit-margin-left="0" fit-margin-right="0" fit-margin-top="0" gridtolerance="10" guidetolerance="10" inkscape:current-layer="g875" inkscape:cx="149.93376" inkscape:cy="335.83551" inkscape:pageopacity="0" inkscape:pageshadow="2" inkscape:window-height="1014" inkscape:window-maximized="1" inkscape:window-width="1920" inkscape:window-x="0" inkscape:window-y="0" inkscape:zoom="0.65876944" objecttolerance="10" pagecolor="#ffffff" showgrid="false"/>
 <g transform="translate(-11.49 -10.507)" inkscape:groupmode="layer" inkscape:label="Image">
  <path d="m337.83 301.14c-3.5184-1.5872-11.23-8.5999-11.23-10.212 0-0.46605-1.2017-2.6496-2.6705-4.8522-3.5349-5.3011-4.5125-8.3682-4.5032-14.127 0.0115-6.9436 3.3594-13.45 8.8776-17.251l1.7676-1.2176-1.5363-2.9687c-0.84494-1.6328-2.3644-4.0875-3.3766-5.4549-2.4992-3.3763-4.9422-10.191-4.9422-13.786 0-1.6246-0.26931-2.9599-0.59846-2.9674-14.802-0.33751-20.325-0.84271-24.784-2.2668-5.9246-1.8921-11.664-4.6379-16.339-7.8171-4.4982-3.0588-13.542-12.382-15.325-15.798-0.78843-1.5106-2.7574-4.6887-4.3755-7.0625-10.597-15.546-12.477-37.167-4.6966-53.999 9.141-19.775 30.133-33.099 52.155-33.104 4.6414-6e-4 14.414 1.783 19.486 3.5574 3.4702 1.214 3.6047 1.1964 8.3784-1.1014 6.7453-3.2467 9.7035-3.6357 15.495-2.0376 6.5678 1.8123 11.535 6.6361 18.467 17.933l1.9805 3.2277 0.63208 34.528c0.34764 18.99 0.53362 45.298 0.41327 58.462l-0.21879 23.934-2.1887 3.6616c-1.2038 2.0139-3.6276 4.8728-5.3862 6.3532-3.15 2.6516-3.1798 2.7265-2.0064 5.0397 0.65511 1.2914 1.9507 3.0232 2.8792 3.8482 5.6286 5.0021 7.4023 17.132 3.5794 24.479-2.4322 4.6743-7.0121 9.0406-11.639 11.096-4.8551 2.1568-13.4 2.1119-18.294-0.0962zm-22.769-121.57c7.1091-3.2863 11.61-11.362 10.366-18.6-0.45339-2.6392-1.0122-3.2873-4.1724-4.8395-7.077-3.4758-14.412-2.704-20.255 2.1314-4.4508 3.683-6.9564 11.019-5.6852 16.644 1.289 5.7041 12.015 8.2375 19.746 4.6637zm-245.4 116.26c-13.309-1.4062-24.149-7.0862-31.532-16.522-1.9678-2.5149-3.5778-4.8829-3.5778-5.2623 0-0.37935-1.069-2.1193-2.3756-3.8665-2.7892-3.7298-7.1859-12.214-8.0706-15.573-0.34099-1.2948-1.241-4.6495-2-7.4549-1.9765-7.3053-2.0292-28.778-0.09015-36.714 1.6451-6.7322 6.0733-19.856 7.06-20.924 0.37878-0.41003 0.68869-1.4871 0.68869-2.3934 0-0.90636 0.30484-1.9834 0.67741-2.3934 0.37257-0.41001 1.6741-3.3939 2.8922-6.6309 1.2182-3.237 2.8343-7.4745 3.5915-9.4167 3.9672-10.176 14.808-38.778 16.508-43.552 1.0755-3.0212 2.285-6.1993 2.6878-7.0625 0.4028-0.86322 2.9054-7.396 5.5613-14.517 2.6559-7.1214 5.1419-13.654 5.5245-14.517 0.94692-2.1365 5.0295-12.684 8.0489-20.795 5.1265-13.771 9.476-20.407 19.2-29.29 13.136-12.002 32.107-18.495 47.299-16.189 16.692 2.5333 31.401 13.313 45.293 33.193 11.22 16.056 11.629 16.9 27.428 56.624 7.9786 20.061 9.1095 22.917 11.031 27.858 4.1793 10.747 19.109 47.765 21.688 53.776 6.8474 15.959 10.236 31.518 8.5681 39.339-0.5173 2.4254-1.4621 5.1926-2.0996 6.1494-1.9836 2.9773-7.7717 5.1058-13.831 5.0865-6.5266-0.0209-10.567-1.6562-14.832-6.0026-3.1264-3.1866-3.4856-3.7167-10.738-15.848-6.3669-10.651-6.3124-10.632-32.588-10.951-22.308-0.27083-26.589 0.21258-28.581 3.2266-0.63038 0.95417-1.8947 5.4426-2.8096 9.9744-6.3576 31.491-21.146 54.224-41.706 64.109-11.524 5.541-25.755 7.9336-38.917 6.5429zm106.35-132.92c3.7892-1.5659 7.4495-5.6593 8.5654-9.5786 1.1666-4.0977 0.40174-7.8777-3.1218-15.428-2.8171-6.0364-3.3-7.13-14.044-31.806-7.4068-17.011-8.8672-19.814-10.322-19.814-2.8469 0-5.3328 2.3572-7.3556 6.9746-1.0611 2.4221-2.2433 5.1101-2.6271 5.9733-0.79482 1.7877-13.797 32.099-19.912 46.42-5.2255 12.238-5.321 15.162-0.56186 17.2 3.5731 1.5297 45.698 1.5803 49.379 0.0595zm580.8 64.611c-10.565-1.4463-20.429-6.0022-24.261-11.205-2.896-3.9327-5.1894-7.6891-7.7633-12.716-1.9695-3.8466-2.4027-5.6419-2.3668-9.8091 0.10293-11.953 6.6518-18.833 17.926-18.833 6.3629 0 12.452 2.5282 17.931 7.4453 1.9777 1.7747 4.5706 3.8271 5.762 4.5609 2.7414 1.6883 6.8558 1.7148 8.7196 0.0559 1.3772-1.2257 1.3633-1.3331-0.33616-2.6144-1.9942-1.5035-5.2647-3.2138-14.539-7.6035-6.7767-3.2074-15.566-9.2911-18.3-12.667-2.413-2.9792-4.4989-6.4408-3.8812-6.4408 0.2951 0-0.40522-0.97109-1.5563-2.158-6.959-7.1756-7.5454-22.63-1.3215-34.825 1.7718-3.4715 7.8341-8.851 12.691-11.262 4.2953-2.132 13.723-4.3321 18.563-4.3321 1.9174 0 5.4372 0.34245 7.8219 0.76101 2.3847 0.41854 5.2499 0.91178 6.3672 1.0961 4.0962 0.67565 12.706 3.6014 17.28 5.8717 4.3445 2.1567 9.8139 6.664 9.8139 8.0874 0 0.33465 1.0752 1.8127 2.3893 3.2846 1.3141 1.4719 3.5206 5.0538 4.9035 7.9599 2.9581 6.2166 3.5096 13.961 1.2896 18.109-1.7652 3.2977-6.066 7.3742-9.1552 8.6778-6.496 2.7412-17.543 0.0718-22.805-5.5108-1.6668-1.7681-3.7883-4.0092-4.7146-4.9804-2.0833-2.1841-6.2287-2.3535-8.0903-0.33056-2.6862 2.9191-2.3456 3.2034 9.5732 7.991 14.371 5.7725 22.33 11.318 28.499 19.856 8.4731 11.727 8.4845 11.755 8.4759 20.906-8e-3 9.7043-1.5561 13.957-7.316 20.112-4.2671 4.5598-7.554 6.6283-14.221 8.9492-4.4933 1.5643-6.9999 1.8359-18.752 2.0318-7.4607 0.12436-15.843-0.0857-18.627-0.46675zm-327.68-0.72123c-10.101-2.0062-21.005-7.8466-28.607-15.323-5.9314-5.8331-14.752-19.214-18.123-27.493-2.9698-7.2938-4.2524-16.143-3.6023-24.854 1.0981-14.714 7.5407-27.801 18.351-37.277 6.0693-5.3198 16.851-10.753 25.307-12.753 22.195-5.2489 46.094 3.8173 59.51 22.575 2.0542 2.872 4.5832 6.2457 5.6201 7.4969 2.8282 3.413 6.1761 10.351 8.1798 16.951 2.2803 7.5111 2.4927 21.288 0.44762 29.035-4.7141 17.857-18.83 33.004-36.762 39.449-5.5858 2.0074-7.6799 2.3274-16.757 2.5602-5.7053 0.1464-11.81-0.0193-13.565-0.36786zm16.483-49.398c6.7128-4.1866 10.239-15.108 6.1013-18.899-3.9022-3.5752-11.23-4.0777-17.151-1.176-6.5928 3.2309-10.056 10.014-8.7114 17.063 0.67753 3.5517 4.032 5.1597 10.902 5.2256 4.4446 0.0425 5.775-0.28978 8.8597-2.2136zm100.81 49.359c-11.902-1.8296-20.966-8.4686-28.875-21.149-5.2406-8.4026-7.464-12.76-9.0345-17.707-1.6672-5.2514-1.739-6.7302-1.6321-33.608 0.12777-32.157 0.37852-33.654 6.6622-39.789 10.971-10.712 27.972-9.1684 36.47 3.3103 1.536 2.2555 3.4574 4.77 4.2697 5.5878 0.81227 0.81779 2.2477 3.1286 3.1898 5.1352 1.569 3.342 1.7466 5.3279 2.1139 23.649 0.3725 18.58 0.50466 20.021 1.8605 20.276 2.6196 0.49381 5.4316-0.66864 7.8085-3.2279l2.3328-2.5117-0.0574-20.888-0.0574-20.888 2.1297-4.4235c7.8774-16.362 31.66-17.64 41.166-2.2128 0.97874 1.5883 2.8851 4.1811 4.2366 5.7618 5.09 5.9536 5.1189 6.2671 4.5126 48.918-0.46422 32.652-0.73819 38.874-1.8164 41.255-5.9144 13.059-23.04 16.594-33.153 6.8432l-3.3564-3.2362-7.0169 3.1831c-5.7617 2.6137-9.9756 4.0718-13.001 4.499-0.21942 0.0311-0.75804 0.2707-1.1969 0.53273-1.4199 0.84781-13.449 1.3196-17.555 0.68847zm111.58-3.8186c-2.2679-0.77073-5.4343-2.3847-7.0366-3.5865-2.9369-2.2029-7.5917-7.8972-7.5917-9.287 0-0.41264-1.0132-2.037-2.2515-3.6097-4.5519-5.7812-4.5311-5.5934-4.5311-40.919 0-29.259 0.14413-32.954 1.4192-36.387 4.3735-11.775 12.692-19.725 24.341-23.264 4.3418-1.3188 7.4201-1.5579 20.061-1.5579 23.441 0 25.539 1.0331 37.232 18.335 3.4711 5.1361 4.5014 12.308 2.6899 18.723-2.1802 7.7202-10.62 14.166-19.632 14.994-4.2653 0.39171-5.9596 0.95658-8.2132 2.7383-5.0618 4.0018-5.1848 4.6116-5.6473 27.998-0.41 20.732-0.46148 21.261-2.3963 24.625-4.0782 7.0908-13.36 12.681-20.958 12.623-1.8488-0.0144-5.2169-0.65621-7.4848-1.427z" fill="#3299e9" stroke-width=".79131"/>
 </g>
</svg>
