<?xml version="1.0" encoding="UTF-8"?>
<svg width="1250pt" height="438pt" inkscape:version="1.0.2 (e86c870879, 2021-01-15)" sodipodi:docname="Liella!_Official_Logo.svg" version="1.1" viewBox="0 0 1250 438" xmlns="http://www.w3.org/2000/svg" xmlns:cc="http://creativecommons.org/ns#" xmlns:dc="http://purl.org/dc/elements/1.1/" xmlns:inkscape="http://www.inkscape.org/namespaces/inkscape" xmlns:rdf="http://www.w3.org/1999/02/22-rdf-syntax-ns#" xmlns:sodipodi="http://sodipodi.sourceforge.net/DTD/sodipodi-0.dtd">
 <metadata>
  <rdf:RDF>
   <cc:Work rdf:about="">
    <dc:format>image/svg+xml</dc:format>
    <dc:type rdf:resource="http://purl.org/dc/dcmitype/StillImage"/>
    <dc:title/>
   </cc:Work>
  </rdf:RDF>
 </metadata>
 <sodipodi:namedview bordercolor="#666666" borderopacity="1" gridtolerance="10" guidetolerance="10" inkscape:current-layer="svg856" inkscape:cx="833.33333" inkscape:cy="292" inkscape:pageopacity="0" inkscape:pageshadow="2" inkscape:window-height="1014" inkscape:window-maximized="1" inkscape:window-width="1920" inkscape:window-x="0" inkscape:window-y="36" inkscape:zoom="0.7632" objecttolerance="10" pagecolor="#ffffff" showgrid="false"/>
 <g fill="#8b4993">
  <path d="m939 40.5c15.5-10.5 35.4-11.7 53.5-8.91 27.5 4.4 53.2 16.5 77 30.6 4.7 2.84 9.45 5.62 13.9 8.87-.67 1.82-1.32 3.64-1.96 5.45-10-7.8-21.2-14-32.2-20.2-18.4-9.79-37.9-18-58.6-21.4-16-2.59-33.5-1.98-47.9 6.34-12.4 6.95-20.8 19.5-24.8 32.9-6.04 19.8-5.04 40.9-1.96 61.1.87 6.42 2.62 12.7 3.42 19.1-5.69-23.7-9.6-48.6-5.07-72.8 2.96-16 10.9-31.8 24.7-41z"/>
  <path d="m1103 56.2c1.37-.56 2.89.02 4.32.16 13.8 2.72 27.7 5.33 41.6 8.06 2.93.25 4.76 3.6 3.35 6.2-22.7 64.9-45.5 130-68.2 195-1.01 2.63-1.61 5.46-3.12 7.87-1.53 1.83-4.06 1.26-6.06.83-14.3-3.12-28.6-6.01-42.8-9.15-2.59-.33-4.32-3.29-3.17-5.68 23.6-66.1 47.3-132 70.9-198 .73-1.75 1.19-4.1 3.26-4.75z"/>
  <path d="m50.2 66.8c25.9.07 51.9 0 77.8.03 3.01-.41 6.18 2.04 6.03 5.18-.24 3.07-1.01 6.07-1.53 9.1-15 81-30 162-45 243-1.25 3.56 1.64 7.7 5.52 7.27 38.7.06 77.4-.02 116 .04 2.69-.16 5.34 1.96 5.52 4.69.04 1.63-.28 3.24-.54 4.84-3.16 18-6.04 36-9.19 54-.35 2.81-3.14 4.72-5.89 4.44-62 .05-124-.03-186 .04-2.24.04-4.88-.18-6.24-2.22-1.84-2.6-.45-5.89-.13-8.74 16.8-97.5 33.6-195 50.4-292 1.87-10 1.13-21.9-6.86-29.2z"/>
  <path d="m577 67.5c22.2.04 44.3 0 66.4.02 4.16-.04 8.34-.1 12.5.29.1 1.68.27 3.38-.08 5.05-16.7 94.1-33.3 188-49.9 282-1.14 7.26-3.01 14.4-3.21 21.8-.4 6.34-.18 12.7.01 19 .08 2.77-2.82 4.46-5.32 4.18-19.4.03-38.7-.02-58 .03-1.91-.03-4.13-.06-5.45-1.68-2.51-2.63-.88-6.42-.52-9.54 16.3-94.2 32.5-188 48.7-283 1.57-9.35 4.01-19.1 1.2-28.5-1.05-4.02-3.59-7.41-6.3-10.5z"/>
  <path d="m676 67.5c22.2.06 44.5 0 66.7.03 4.13-.04 8.27-.11 12.4.3.08 1.7.24 3.41-.12 5.08-17.5 98.9-35 198-52.5 297-1.19 8.78-.85 17.7-.66 26.5.06 2.62-2.68 4.38-5.1 4.11-19.4.05-38.7-.02-58.1.04-2.18.05-4.76-.17-6.05-2.21-1.8-2.4-.55-5.49-.23-8.16 16.8-97 33.4-194 50.1-291 2.19-10.7 2.05-23.4-6.55-31.4z"/>
  <path d="m304 110c16.5-4.42 35 4.41 42.2 19.8 5.46 11.1 4.82 25-1.74 35.5-5.75 9.47-15.9 16.1-26.9 17.4-14 1.99-28.7-5.04-36.1-17.1-6.22-9.78-7.36-22.6-3.05-33.3 4.27-11 14.1-19.6 25.6-22.4z"/>
  <path d="m1145 127c25 26.8 47.3 56.2 64.9 88.4 16.7 30.7 29.8 64 33.4 98.9 1.96 20.6.5 42.4-9.58 60.9-7.73 14.6-21.9 25.5-37.9 29.4-20.4 5.19-41.8 1.51-61.5-4.83-30.2-9.93-57.7-26.3-83.7-44.2-1.67.88-3.33 1.77-4.98 2.67-2.03 16.1-4.03 32.2-6.04 48.3-10.2-9.46-20.1-19.1-30.2-28.6-14 10.3-29.5 18.9-46.4 23.4-13.8 3.65-28.5 4.24-42.3.3-13.9-3.91-26.2-12.4-35.5-23.4-1.12-1.16-2.68-3.56-4.46-2.05-23.1 15.6-50.3 27.5-78.8 25.2-18.6-1.46-36.5-9.23-51-21-10.8-9.08-14.6-23.4-16-36.9-2.32-23.4 1.7-47.2 9.82-69.2 5.79-14.9 13.4-29.6 25.1-40.7 9.53-9.23 21.5-15.4 33.6-20.6 17.7-7.44 37.4-11 56.4-7.38 15.4 2.83 29.7 10.2 41.8 20 1.98 1.81 4.6 2.48 7.2 2.84.21-.49.62-1.47.82-1.96 12.2-1.19 24.5-2.52 36.3-5.85 6.59-1.93 13.4-4.59 17.8-10.2-8.42 51.7-16.9 103-25.4 155-.74 4.59-2.07 9.6.2 14 2.94 5.51 8.55 10.6 15.2 10.1 6.63-.63 12-5.13 16.5-9.73 8.01-8.6 14.1-18.8 19.3-29.3-7.63-12.5-15.1-25.1-22.7-37.7 15.6 1.42 31.2 3.08 46.9 4.47 9.81-12.6 19.4-25.5 29.4-38 .23.06.69.17.92.23 1.57 15.1 2.99 30.1 4.38 45.2 13.1 3.72 26.2 7.06 39.3 10.7-7.28 3.9-14.6 7.77-21.8 11.7 17.4 12.1 35.5 23.3 54.8 32.1 18.5 8.25 38.4 15.1 59 14.4 12.7-.26 25.8-4.51 35-13.6 10.6-10.3 15.6-25.1 17.3-39.4 2.44-21.8-1.09-43.8-7.09-64.7-9.87-33.9-26.4-65.6-46.1-94.8-11.2-16.4-23.4-32-36.6-46.8.84-2.52 1.76-5.02 2.63-7.54m-316 122c-12.9 2.41-23.7 11.5-30.5 22.4-2.71 4.35-3.86 9.41-4.93 14.4-3.09 14.2-5.22 28.6-6.25 43-1.07 11.1 6.36 21.8 16.2 26.4 9.39 4.4 20.5 3.22 29.8-.95 10.5-4.77 19.8-13.1 24-24.1 1.98-4.92 2.61-10.2 3.56-15.4 1.85-10.7 3.81-21.3 5.63-32 1.83-10.6-3.22-21.6-11.6-28-7.22-5.56-16.9-7.53-25.8-5.8m185 76.5c-.88 5.49-2.12 10.9-3.03 16.4-4.4 2.07-8.92 3.87-13.2 6.05 4.45 1.43 9.02 2.45 13.6 3.62.23 5.15.51 10.3 1.12 15.4 3.72-3.98 7.01-8.33 10.4-12.5 4.73.58 9.44 1.32 14.2 1.86-1.45-3.04-3.17-5.94-4.84-8.85-.67-1.32-1.81-2.89-.81-4.35 2.11-3.9 4.6-7.57 6.78-11.4-4.88.94-9.45 2.97-14.3 4.11-3.45-3.29-5.92-7.6-9.89-10.3z"/>
  <path d="m273 204c.09-1.77 1.13-3.46 3.15-3.11 20-.07 40-.04 60-.01 1.97-.4 3.61 1.46 2.89 3.37-11.2 63.9-22.4 128-33.5 192-.09 1.9-1.05 3.95-3.32 3.57-25.5.06-51 .03-76.6.01 7.98-9.04 15.5-19.3 17.7-31.4 9.87-54.7 19.8-109 29.7-164z"/>
  <path d="m440 205c15.9-2.35 32.4-.34 47.5 5.25 13.3 4.97 25.2 14.4 32 27 8.64 15.8 10 34.4 8.43 52.1-.96 10.1-2.72 20.2-5.35 30-.3 1.98-2.29 2.72-4.06 2.56-32.7-.01-65.4-.01-98 0-2.06.31-4.62-1.1-4.18-3.47 1.42-10.7 3.26-21.3 4.81-32 .08-1.89 1.31-3.99 3.46-3.76 15.7-.15 31.3.03 47-.07 1.64.18 3.33-.75 3.72-2.42 1.93-7.85-1.02-16.3-6.52-22.1-9.07-9.63-23.8-13.2-36.4-9.17-14.7 4.54-24.1 18.4-28.5 32.5-4.33 14.6-6.65 29.8-7.76 44.9-.7 7.91 1.74 16.2 7.21 22.1 5.17 5.6 12.6 8.66 20.1 9.41 17.3 1.78 35.4-7.57 43.3-23.2.92-1.43 1.6-3.76 3.74-3.57 14.3-.13 28.7-.11 43-.01 2.19-.19 3.54 2.2 3 4.14-1.45 12.9-8.2 24.8-17.2 34-11.6 12-26.6 20.3-42.3 25.6-20.2 6.78-42.4 8.9-63.3 3.88-15.4-3.68-30.1-12.3-39.2-25.6-10.5-15.3-13-34.7-11.2-52.8 2.62-23.7 8.27-47.7 20.6-68.4 10.3-17.4 26.2-31.5 45-39.1 9.87-4.05 20.3-6.55 30.9-7.84z"/>
 </g>
 <path d="m1014 325c3.97 2.71 6.44 7.02 9.89 10.3 4.82-1.14 9.39-3.17 14.3-4.11-2.18 3.86-4.67 7.53-6.78 11.4-1 1.46.14 3.03.81 4.35 1.67 2.91 3.39 5.81 4.84 8.85-4.74-.54-9.45-1.28-14.2-1.86-3.44 4.21-6.73 8.56-10.4 12.5-.61-5.14-.89-10.3-1.12-15.4-4.54-1.17-9.11-2.19-13.6-3.62 4.33-2.18 8.85-3.98 13.2-6.05.91-5.48 2.15-10.9 3.03-16.4z" fill="#f7f71d"/>
</svg>
