<?xml version="1.0" encoding="UTF-8"?>
<svg id="图层_1" xmlns="http://www.w3.org/2000/svg" viewBox="0 0 859.55 768.33">
    <title>μ’s</title>
    <path fill="#e3007a" d="M328.5,242.5c-14.82,7.11-76,49-81,62-.8,2.09,3,8,5,7s56.4-40,61-42c7-3,12,3,10,7s-120,219-125,229-52,94-57,103-10,17-11,20-3,10,7,10,36-4,46-21,8.6-22.51,10-30c0,0,6-29,11-41s26.56-56.37,30-60c1.48-1.56,4-6,7-5,2.12.71,10,6,16,3a346.89,346.89,0,0,0,61-40c28-23,93-81,94-82s5-4,4,0-44,79-49,90l-8,16c-1,2-3,14,7,15s33,0,68-26,53-43,54-45,4-8-2-11c-4-2-14,7-20,13,0,0-25,21-32,26s-19,8-22,8-7-2-3-11,44-81,55-98,45-78,48-84c1-2,2.26-4.14,3-6,2-5-5-12-9-14s-15-4-19,4c-1.61,3.22-33,53-55,77s-57,63-79,81-58,44-64,47-11,2-13,1-5-2-3-8,41-76,48-88,52-91,55-96,7-13,1-17S362.05,226.4,328.5,242.5Z"/>
    <path fill="#e3007a" d="M611.5,187.5s4-7,5-9,2-8-8-9-22,0-25,3-6,9-11,24-24,81-25,84,4,5,8,3,24-41,32-55C594.66,216,611.5,187.5,611.5,187.5Z"/>
    <path fill="#e3007a" d="M648.5,324.5c1.78,2.43,5,7,7,8s7-1,10-5a19.83,19.83,0,0,0,3-19c-3-8-14.31-15.88-33-11-23,6-54,33-57,58-2.75,22.92,7,43,12,53s11,29,1,40-29,24-51-4c-2-2.49-9-5-14,2-3.29,4.6-10,15-5,21,29.59,35.51,91-10,98-38,5.53-22.12,2-32-5-50s-14-43.2-7-53C622.5,305.5,643.42,317.56,648.5,324.5Z"/>
</svg>
